<svg xmlns="http://www.w3.org/2000/svg" xmlns:xlink="http://www.w3.org/1999/xlink" width="500" zoomAndPan="magnify" viewBox="0 0 375 225" height="300" preserveAspectRatio="xMidYMid meet" version="1.2"><defs/><g id="d6c428b85b"><g style="fill:#000000;fill-opacity:1;"><g transform="translate(30.256637, 167.014489)"><path style="stroke:none" d="M 79.625 2.609375 C 63.332031 2.609375 50.203125 0.859375 40.234375 -2.640625 C 30.265625 -6.140625 22.675781 -10.957031 17.46875 -17.09375 C 12.257812 -23.226562 8.757812 -30.296875 6.96875 -38.296875 L 60.640625 -38.296875 C 64.617188 -32.585938 70.945312 -29.734375 79.625 -29.734375 C 88.3125 -29.734375 94.640625 -32.585938 98.609375 -38.296875 C 98.953125 -38.859375 99.125 -39.363281 99.125 -39.8125 C 99.125 -41.320312 97.117188 -42.457031 93.109375 -43.21875 C 89.109375 -43.976562 83.128906 -44.550781 75.171875 -44.9375 C 65.148438 -45.382812 54.625 -46.445312 43.59375 -48.125 C 19.007812 -51.9375 6.71875 -61.820312 6.71875 -77.78125 C 6.71875 -79.125 6.800781 -80.550781 6.96875 -82.0625 C 8.757812 -90.070312 12.257812 -97.140625 17.46875 -103.265625 C 22.675781 -109.398438 30.265625 -114.21875 40.234375 -117.71875 C 50.203125 -121.21875 63.332031 -122.96875 79.625 -122.96875 C 95.925781 -122.96875 109.0625 -121.21875 119.03125 -117.71875 C 129 -114.21875 136.585938 -109.398438 141.796875 -103.265625 C 147.003906 -97.140625 150.503906 -90.070312 152.296875 -82.0625 L 98.609375 -82.0625 C 94.640625 -87.78125 88.3125 -90.640625 79.625 -90.640625 C 70.945312 -90.640625 64.617188 -87.78125 60.640625 -82.0625 C 60.367188 -81.613281 60.234375 -81.195312 60.234375 -80.8125 C 60.234375 -79.46875 62.148438 -78.472656 65.984375 -77.828125 C 69.816406 -77.179688 75.46875 -76.632812 82.9375 -76.1875 C 90.414062 -75.738281 98.382812 -75.007812 106.84375 -74 C 115.300781 -72.988281 123.210938 -71.238281 130.578125 -68.75 C 137.941406 -66.257812 143.695312 -62.578125 147.84375 -57.703125 C 151.09375 -53.953125 152.71875 -49.191406 152.71875 -43.421875 C 152.71875 -41.796875 152.578125 -40.085938 152.296875 -38.296875 C 150.503906 -30.296875 147.003906 -23.226562 141.796875 -17.09375 C 136.585938 -10.957031 129 -6.140625 119.03125 -2.640625 C 109.0625 0.859375 95.925781 2.609375 79.625 2.609375 Z M 79.625 2.609375 "/></g><g transform="translate(189.683503, 167.014489)"><path style="stroke:none" d="M 102.8125 0 L 52.25 0 L 52.25 -90.71875 L 5.046875 -90.71875 L 5.046875 -120.546875 L 150.015625 -120.546875 L 150.015625 -90.71875 L 102.8125 -90.71875 Z M 102.8125 0 "/></g></g></g></svg>