<svg xmlns="http://www.w3.org/2000/svg" xmlns:xlink="http://www.w3.org/1999/xlink" width="500" zoomAndPan="magnify" viewBox="0 0 375 374.999991" height="500" preserveAspectRatio="xMidYMid meet" version="1.0"><defs><clipPath id="8b57e08441"><path d="M 187.5 0 C 83.945312 0 0 83.945312 0 187.5 C 0 291.054688 83.945312 375 187.5 375 C 291.054688 375 375 291.054688 375 187.5 C 375 83.945312 291.054688 0 187.5 0 Z M 187.5 0 " clip-rule="nonzero"/></clipPath><clipPath id="19cb7fdd95"><path d="M 66 46 L 317.152344 46 L 317.152344 339.910156 L 66 339.910156 Z M 66 46 " clip-rule="nonzero"/></clipPath></defs><g clip-path="url(#8b57e08441)"><rect x="-37.5" width="450" fill="#ffffff" y="-37.499999" height="449.999989" fill-opacity="1"/></g><path fill="#fad0d0" d="M 207.871094 123.527344 C 204.566406 120.507812 200.972656 117.5625 197.1875 114.71875 C 183.871094 102.777344 167.164062 88.960938 149.433594 74.632812 C 109.613281 42.460938 57.675781 35.390625 58.238281 71.414062 C 58.628906 96.5 77.605469 131.847656 99.640625 154.191406 C 105.085938 162.832031 112.96875 171.625 123.742188 180.144531 C 148.144531 199.445312 202.089844 212.308594 229.066406 197.515625 C 261.8125 179.546875 237.414062 150.546875 207.871094 123.527344 Z M 207.871094 123.527344 " fill-opacity="1" fill-rule="nonzero"/><path fill="#f7acae" d="M 103.832031 92.644531 C 123.796875 76.644531 167.0625 92.121094 197.1875 114.71875 C 183.871094 102.777344 167.164062 88.960938 149.433594 74.632812 C 109.613281 42.460938 57.675781 35.390625 58.238281 71.414062 C 58.628906 96.5 77.605469 131.847656 99.640625 154.191406 C 83.667969 128.847656 88.691406 104.78125 103.832031 92.644531 Z M 103.832031 92.644531 " fill-opacity="1" fill-rule="nonzero"/><g clip-path="url(#19cb7fdd95)"><path fill="#000000" d="M 287.554688 184.027344 C 277.597656 177.222656 267.414062 170.597656 256.347656 165.578125 C 252.820312 163.996094 249.214844 162.585938 245.53125 161.390625 C 244.082031 157.167969 241.96875 153.25 239.660156 149.539062 C 236.371094 144.320312 232.546875 139.515625 228.457031 134.972656 C 224.296875 130.496094 220.011719 126.226562 215.589844 122.0625 C 206.75 113.757812 197.523438 105.902344 188.027344 98.398438 C 178.53125 90.902344 168.804688 83.703125 158.890625 76.777344 C 148.972656 69.855469 138.886719 63.1875 128.425781 57.035156 C 123.214844 53.96875 117.625 51.140625 111.714844 49.355469 C 105.8125 47.558594 99.574219 46.59375 93.324219 47.058594 C 87.113281 47.507812 80.808594 49.542969 75.859375 53.628906 C 73.390625 55.664062 71.355469 58.210938 69.851562 61.023438 C 68.339844 63.839844 67.453125 66.941406 67.019531 70.054688 C 66.207031 76.214844 66.523438 82.449219 67.746094 88.496094 C 68.96875 94.546875 71.21875 100.296875 73.8125 105.804688 C 74.539062 107.328125 75.300781 108.832031 76.082031 110.324219 C 72.015625 114.5 69.449219 119.964844 68.15625 125.519531 C 67.433594 128.554688 67.03125 131.628906 66.898438 134.726562 C 66.722656 137.824219 66.847656 140.921875 67.1875 143.988281 C 67.832031 150.128906 69.378906 156.113281 71.378906 161.902344 C 75.453125 173.460938 81.375 184.214844 88.140625 194.300781 C 94.921875 204.390625 102.492188 213.894531 110.542969 222.953125 C 114.566406 227.488281 118.691406 231.90625 123.046875 236.164062 C 127.386719 240.398438 131.824219 244.503906 136.332031 248.527344 C 145.320312 256.613281 154.511719 264.441406 163.777344 272.171875 C 173.027344 279.929688 182.363281 287.570312 191.730469 295.183594 C 201.085938 302.804688 210.546875 310.292969 220.027344 317.753906 C 229.542969 325.183594 239 332.667969 248.71875 339.832031 C 248.792969 339.886719 248.890625 339.875 248.949219 339.800781 C 249.003906 339.730469 248.992188 339.625 248.921875 339.570312 L 248.914062 339.566406 C 229.898438 324.746094 211.417969 309.210938 192.835938 293.84375 C 174.3125 278.40625 155.914062 262.789062 138.035156 246.648438 C 133.5625 242.617188 129.164062 238.503906 124.894531 234.296875 C 120.632812 230.097656 116.550781 225.671875 112.582031 221.15625 C 104.648438 212.136719 97.191406 202.683594 90.5625 192.699219 C 83.980469 182.699219 78.085938 172.1875 74.085938 160.957031 C 70.117188 149.800781 68.179688 137.65625 70.804688 126.15625 C 71.914062 121.195312 74.023438 116.429688 77.34375 112.679688 C 81.9375 121.089844 87.285156 129.035156 92.726562 136.855469 C 99.53125 146.917969 107.945312 155.851562 117.125 163.730469 C 126.347656 171.582031 136.355469 178.527344 147.128906 184.085938 C 152.523438 186.835938 158.140625 189.230469 164.070312 190.683594 C 167.023438 191.394531 170.117188 191.820312 173.195312 191.554688 C 173.65625 191.519531 174.109375 191.46875 174.570312 191.398438 C 176.308594 192.320312 178.136719 193.035156 179.984375 193.621094 C 183.003906 194.519531 185.917969 195.152344 188.941406 195.734375 C 194.945312 196.851562 201.085938 197.464844 207.25 197.246094 C 213.457031 197.042969 219.519531 195.839844 225.417969 194.003906 C 231.265625 192.117188 237.113281 189.464844 241.734375 184.867188 C 243.996094 182.566406 245.867188 179.652344 246.6875 176.414062 C 247.554688 173.199219 247.496094 169.855469 246.941406 166.714844 C 246.730469 165.570312 246.464844 164.441406 246.152344 163.34375 C 249.398438 164.394531 252.597656 165.613281 255.722656 167.007812 C 266.679688 171.867188 276.972656 178.195312 287.019531 184.839844 C 297.058594 191.503906 306.90625 198.476562 316.796875 205.375 C 316.867188 205.421875 316.972656 205.410156 317.027344 205.332031 C 317.082031 205.261719 317.0625 205.15625 316.992188 205.105469 C 307.210938 198.027344 297.496094 190.882812 287.554688 184.027344 Z M 70.109375 88.015625 C 68.996094 82.230469 68.757812 76.238281 69.582031 70.425781 C 70.007812 67.578125 70.84375 64.785156 72.214844 62.292969 C 73.582031 59.800781 75.402344 57.570312 77.613281 55.78125 C 82.046875 52.195312 87.765625 50.375 93.535156 50.019531 C 99.328125 49.617188 105.210938 50.539062 110.808594 52.273438 C 116.449219 54.011719 121.691406 56.675781 126.847656 59.75 C 137.152344 65.867188 147.167969 72.558594 157 79.488281 C 166.828125 86.421875 176.46875 93.628906 185.867188 101.121094 C 195.261719 108.625 204.476562 116.359375 213.222656 124.578125 C 217.589844 128.679688 221.867188 132.917969 225.925781 137.273438 C 229.917969 141.683594 233.640625 146.351562 236.792969 151.347656 C 238.570312 154.175781 240.203125 157.132812 241.472656 160.183594 C 240.699219 159.972656 239.921875 159.773438 239.136719 159.585938 C 233.222656 158.15625 227.144531 157.339844 221.058594 157.183594 C 214.964844 156.996094 208.894531 157.410156 202.867188 158.15625 C 197.390625 158.859375 191.929688 159.914062 186.621094 161.601562 C 185.765625 159.273438 184.722656 157.011719 183.546875 154.84375 C 171.40625 133.824219 152.371094 116.785156 129.792969 107.644531 C 126.980469 106.492188 124.128906 105.433594 121.222656 104.539062 C 118.339844 103.582031 115.363281 102.820312 112.363281 102.246094 C 106.359375 101.109375 100.148438 100.707031 94.011719 101.636719 C 88.15625 102.496094 82.289062 104.742188 77.714844 108.769531 C 77.0625 107.476562 76.425781 106.175781 75.816406 104.863281 C 73.34375 99.441406 71.222656 93.832031 70.109375 88.015625 Z M 164.320312 189.601562 C 158.535156 188.164062 152.984375 185.777344 147.660156 183.03125 C 137 177.515625 127.136719 170.484375 118.082031 162.605469 C 109.054688 154.6875 100.878906 145.800781 94.246094 135.78125 C 88.777344 127.753906 83.421875 119.609375 78.90625 111.054688 C 83.058594 107.085938 88.628906 104.789062 94.371094 103.871094 C 100.167969 102.914062 106.167969 103.214844 112 104.242188 C 117.84375 105.269531 123.558594 107.15625 129.132812 109.300781 C 140.265625 113.671875 150.664062 119.9375 159.730469 127.78125 C 164.25 131.714844 168.476562 136.003906 172.265625 140.660156 C 173.261719 141.789062 174.144531 143 175.058594 144.191406 C 175.964844 145.390625 176.902344 146.5625 177.726562 147.816406 L 180.273438 151.535156 C 181.078125 152.796875 181.851562 154.078125 182.574219 155.382812 C 183.730469 157.492188 184.761719 159.683594 185.601562 161.941406 C 185.414062 162.003906 185.226562 162.0625 185.035156 162.125 C 182.140625 163.140625 179.289062 164.339844 176.59375 165.902344 C 173.902344 167.453125 171.324219 169.351562 169.273438 171.867188 C 167.222656 174.324219 165.8125 177.71875 166.230469 181.171875 C 166.59375 184.675781 168.914062 187.589844 171.476562 189.472656 C 171.96875 189.835938 172.476562 190.175781 172.988281 190.492188 C 170.09375 190.710938 167.171875 190.300781 164.320312 189.601562 Z M 173.070312 187.324219 C 170.816406 185.695312 169.078125 183.445312 168.78125 180.851562 C 168.4375 178.238281 169.445312 175.574219 171.203125 173.40625 C 172.945312 171.210938 175.285156 169.425781 177.789062 167.949219 C 180.300781 166.457031 183.015625 165.28125 185.796875 164.269531 C 185.976562 164.207031 186.160156 164.148438 186.34375 164.085938 C 187.175781 166.753906 187.730469 169.503906 187.894531 172.289062 C 188.042969 175.238281 187.71875 178.242188 186.640625 180.976562 C 185.59375 183.714844 183.742188 186.113281 181.347656 187.765625 C 180.101562 188.605469 178.730469 189.242188 177.292969 189.691406 C 175.789062 189.042969 174.359375 188.269531 173.070312 187.324219 Z M 243.640625 167.300781 C 244.140625 170.089844 244.171875 172.929688 243.464844 175.554688 C 242.800781 178.195312 241.3125 180.539062 239.367188 182.539062 C 235.410156 186.53125 229.953125 189.066406 224.417969 190.921875 C 218.832031 192.730469 212.972656 193.949219 207.128906 194.199219 C 201.238281 194.472656 195.300781 193.949219 189.453125 192.921875 C 186.550781 192.394531 183.566406 191.769531 180.800781 190.980469 C 180.117188 190.773438 179.429688 190.542969 178.761719 190.292969 C 179.871094 189.847656 180.9375 189.300781 181.933594 188.625 C 184.5 186.839844 186.476562 184.242188 187.574219 181.335938 C 188.6875 178.429688 189.054688 175.300781 188.914062 172.234375 C 188.761719 169.332031 188.203125 166.492188 187.359375 163.738281 C 192.46875 162.058594 197.792969 160.96875 203.160156 160.21875 C 209.078125 159.425781 215.078125 158.953125 221.03125 159.085938 C 228.210938 159.183594 235.335938 160.265625 242.253906 162.171875 C 242.847656 163.855469 243.320312 165.5625 243.640625 167.300781 Z M 243.640625 167.300781 " fill-opacity="1" fill-rule="nonzero"/></g></svg>