<svg xmlns="http://www.w3.org/2000/svg" xmlns:xlink="http://www.w3.org/1999/xlink" width="500" zoomAndPan="magnify" viewBox="0 0 375 374.999991" height="500" preserveAspectRatio="xMidYMid meet" version="1.0"><defs><g/><clipPath id="f9f01773d6"><path d="M 121 58 L 248.238281 58 L 248.238281 205.941406 L 121 205.941406 Z M 121 58 " clip-rule="nonzero"/></clipPath></defs><g fill="#000000" fill-opacity="1"><g transform="translate(-3.412915, 239.401364)"><g><path d="M 66.9375 -4.0625 C 67.238281 -8.539062 67.175781 -13.3125 66.75 -18.375 C 66.332031 -23.445312 65.925781 -28.359375 65.53125 -33.109375 C 65.144531 -37.867188 64.953125 -42.203125 64.953125 -46.109375 C 64.953125 -50.015625 65.570312 -53.085938 66.8125 -55.328125 C 63.957031 -51.234375 61.367188 -47.40625 59.046875 -43.84375 C 56.722656 -40.289062 54.515625 -36.675781 52.421875 -33 C 50.335938 -29.320312 48.3125 -25.453125 46.34375 -21.390625 C 44.375 -17.335938 42.304688 -12.835938 40.140625 -7.890625 C 38.972656 -5.179688 38.21875 -3.1875 37.875 -1.90625 C 37.53125 -0.632812 37.007812 0 36.3125 0 C 35.6875 0 35.296875 -0.285156 35.140625 -0.859375 C 34.992188 -1.441406 35.191406 -2.507812 35.734375 -4.0625 C 39.671875 -14.425781 42.273438 -23.742188 43.546875 -32.015625 C 44.828125 -40.285156 45.019531 -47.320312 44.125 -53.125 C 43.238281 -58.925781 41.382812 -63.375 38.5625 -66.46875 C 35.75 -69.5625 32.253906 -71.109375 28.078125 -71.109375 C 25.210938 -71.109375 22.640625 -70.523438 20.359375 -69.359375 C 18.078125 -68.203125 16.144531 -66.578125 14.5625 -64.484375 C 12.976562 -62.398438 11.757812 -59.925781 10.90625 -57.0625 C 10.050781 -54.207031 9.625 -51.117188 9.625 -47.796875 C 9.46875 -47.328125 9.21875 -47.050781 8.875 -46.96875 C 8.53125 -46.894531 8.359375 -47.050781 8.359375 -47.4375 C 8.203125 -51.15625 8.664062 -54.695312 9.75 -58.0625 C 10.832031 -61.425781 12.394531 -64.382812 14.4375 -66.9375 C 16.488281 -69.488281 18.984375 -71.515625 21.921875 -73.015625 C 24.859375 -74.523438 28.1875 -75.28125 31.90625 -75.28125 C 35.070312 -75.28125 37.738281 -74.46875 39.90625 -72.84375 C 42.070312 -71.21875 43.769531 -68.957031 45 -66.0625 C 46.238281 -63.164062 47.050781 -59.765625 47.4375 -55.859375 C 47.832031 -51.953125 47.832031 -47.71875 47.4375 -43.15625 C 47.050781 -38.59375 46.296875 -33.796875 45.171875 -28.765625 C 44.054688 -23.742188 42.648438 -18.71875 40.953125 -13.6875 C 43.035156 -18.476562 45.488281 -23.519531 48.3125 -28.8125 C 51.132812 -34.113281 54.148438 -39.28125 57.359375 -44.3125 C 60.566406 -49.34375 63.851562 -54.019531 67.21875 -58.34375 C 70.582031 -62.675781 73.890625 -66.3125 77.140625 -69.25 C 77.367188 -69.332031 77.578125 -69.253906 77.765625 -69.015625 C 77.960938 -68.785156 78.097656 -68.476562 78.171875 -68.09375 C 78.253906 -67.707031 78.273438 -67.320312 78.234375 -66.9375 C 78.203125 -66.550781 78.070312 -66.203125 77.84375 -65.890625 C 76.757812 -65.191406 75.847656 -64.515625 75.109375 -63.859375 C 74.378906 -63.203125 73.585938 -62.332031 72.734375 -61.25 C 71.421875 -59.550781 70.507812 -57.382812 70 -54.75 C 69.5 -52.125 69.226562 -49.265625 69.1875 -46.171875 C 69.15625 -43.078125 69.3125 -39.789062 69.65625 -36.3125 C 70.007812 -32.832031 70.335938 -29.367188 70.640625 -25.921875 C 70.953125 -22.484375 71.1875 -19.140625 71.34375 -15.890625 C 71.5 -12.640625 71.421875 -9.660156 71.109375 -6.953125 C 74.046875 -11.367188 77.410156 -15.601562 81.203125 -19.65625 C 84.992188 -23.71875 88.585938 -27.875 91.984375 -32.125 C 95.390625 -36.382812 98.25 -40.867188 100.5625 -45.578125 C 102.882812 -50.296875 104.046875 -55.554688 104.046875 -61.359375 C 104.046875 -63.835938 103.695312 -65.890625 103 -67.515625 C 102.3125 -69.140625 101.304688 -70.03125 99.984375 -70.1875 C 99.054688 -70.257812 98.242188 -69.8125 97.546875 -68.84375 C 96.859375 -67.875 96.242188 -66.8125 95.703125 -65.65625 C 94.929688 -65.34375 94.546875 -65.613281 94.546875 -66.46875 C 95.390625 -68.632812 96.503906 -70.546875 97.890625 -72.203125 C 99.285156 -73.867188 100.644531 -74.703125 101.96875 -74.703125 C 103.820312 -74.703125 105.304688 -73.773438 106.421875 -71.921875 C 107.546875 -70.066406 108.109375 -67.820312 108.109375 -65.1875 C 108.109375 -60.550781 107.488281 -56.316406 106.25 -52.484375 C 105.019531 -48.660156 103.378906 -45.066406 101.328125 -41.703125 C 99.273438 -38.335938 96.929688 -35.109375 94.296875 -32.015625 C 91.671875 -28.921875 88.984375 -25.847656 86.234375 -22.796875 C 83.492188 -19.742188 80.789062 -16.609375 78.125 -13.390625 C 75.457031 -10.179688 73.039062 -6.757812 70.875 -3.125 C 70.257812 -2.195312 69.695312 -1.441406 69.1875 -0.859375 C 68.6875 -0.285156 68.128906 0 67.515625 0 C 67.128906 0 66.875 -0.113281 66.75 -0.34375 C 66.632812 -0.582031 66.578125 -0.894531 66.578125 -1.28125 C 66.578125 -1.664062 66.632812 -2.109375 66.75 -2.609375 C 66.875 -3.109375 66.9375 -3.59375 66.9375 -4.0625 Z M 66.9375 -4.0625 "/></g></g></g><g fill="#000000" fill-opacity="1"><g transform="translate(91.931918, 239.401364)"><g><path d="M 6.03125 -21.578125 C 5.800781 -21.421875 5.585938 -21.476562 5.390625 -21.75 C 5.203125 -22.019531 5.1875 -22.269531 5.34375 -22.5 C 6.414062 -23.582031 7.878906 -24.816406 9.734375 -26.203125 C 11.597656 -27.597656 13.457031 -28.765625 15.3125 -29.703125 C 15.925781 -29.703125 16.234375 -29.351562 16.234375 -28.65625 C 15.234375 -26.875 14.25 -24.9375 13.28125 -22.84375 C 12.3125 -20.757812 11.457031 -18.691406 10.71875 -16.640625 C 9.988281 -14.597656 9.390625 -12.628906 8.921875 -10.734375 C 8.460938 -8.835938 8.234375 -7.269531 8.234375 -6.03125 C 8.234375 -4.40625 8.773438 -3.59375 9.859375 -3.59375 C 10.710938 -3.59375 11.546875 -3.957031 12.359375 -4.6875 C 13.171875 -5.425781 14.117188 -6.414062 15.203125 -7.65625 C 15.347656 -7.8125 15.535156 -7.769531 15.765625 -7.53125 C 16.003906 -7.300781 16.046875 -7.035156 15.890625 -6.734375 C 14.492188 -5.023438 13.003906 -3.472656 11.421875 -2.078125 C 9.835938 -0.691406 8.347656 0 6.953125 0 C 4.941406 0 3.9375 -1.273438 3.9375 -3.828125 C 3.9375 -5.296875 4.1875 -7.054688 4.6875 -9.109375 C 5.195312 -11.160156 5.835938 -13.226562 6.609375 -15.3125 C 7.378906 -17.394531 8.25 -19.40625 9.21875 -21.34375 C 10.1875 -23.28125 11.132812 -24.941406 12.0625 -26.328125 C 11.207031 -25.710938 10.140625 -24.921875 8.859375 -23.953125 C 7.585938 -22.984375 6.644531 -22.191406 6.03125 -21.578125 Z M 16.46875 -34.6875 C 16.238281 -34.457031 16.023438 -34.4375 15.828125 -34.625 C 15.640625 -34.820312 15.503906 -35.09375 15.421875 -35.4375 C 15.347656 -35.78125 15.3125 -36.1875 15.3125 -36.65625 C 15.3125 -37.125 15.425781 -37.507812 15.65625 -37.8125 C 17.664062 -40.59375 20.488281 -43.570312 24.125 -46.75 C 24.351562 -46.820312 24.582031 -46.757812 24.8125 -46.5625 C 25.050781 -46.375 25.09375 -46.203125 24.9375 -46.046875 C 23.3125 -44.578125 21.765625 -42.816406 20.296875 -40.765625 C 18.828125 -38.722656 17.550781 -36.695312 16.46875 -34.6875 Z M 16.46875 -34.6875 "/></g></g></g><g fill="#000000" fill-opacity="1"><g transform="translate(109.214616, 239.401364)"><g><path d="M 51.265625 -86.1875 C 53.273438 -86.1875 54.570312 -85.257812 55.15625 -83.40625 C 55.738281 -81.550781 55.488281 -79.578125 54.40625 -77.484375 C 54.25 -77.328125 54.050781 -77.328125 53.8125 -77.484375 C 53.582031 -77.640625 53.429688 -77.832031 53.359375 -78.0625 C 53.515625 -78.988281 53.1875 -79.757812 52.375 -80.375 C 51.5625 -81 50.304688 -81.3125 48.609375 -81.3125 C 45.273438 -81.3125 41.984375 -79.921875 38.734375 -77.140625 C 35.492188 -74.359375 32.363281 -70.742188 29.34375 -66.296875 C 26.332031 -61.847656 23.53125 -56.878906 20.9375 -51.390625 C 18.34375 -45.898438 16.097656 -40.425781 14.203125 -34.96875 C 12.316406 -29.519531 10.832031 -24.378906 9.75 -19.546875 C 8.664062 -14.710938 8.125 -10.785156 8.125 -7.765625 C 8.125 -5.453125 8.78125 -4.296875 10.09375 -4.296875 C 11.019531 -4.296875 11.925781 -4.679688 12.8125 -5.453125 C 13.707031 -6.222656 14.734375 -7.382812 15.890625 -8.9375 C 16.117188 -9.082031 16.328125 -9.054688 16.515625 -8.859375 C 16.710938 -8.671875 16.773438 -8.425781 16.703125 -8.125 C 15.160156 -5.726562 13.457031 -3.773438 11.59375 -2.265625 C 9.738281 -0.753906 8.15625 0 6.84375 0 C 5.84375 0 5.03125 -0.40625 4.40625 -1.21875 C 3.789062 -2.03125 3.484375 -3.132812 3.484375 -4.53125 C 3.484375 -6.6875 3.867188 -9.484375 4.640625 -12.921875 C 5.410156 -16.367188 6.488281 -20.21875 7.875 -24.46875 C 9.269531 -28.726562 10.953125 -33.195312 12.921875 -37.875 C 14.898438 -42.550781 17.050781 -47.171875 19.375 -51.734375 C 21.695312 -56.296875 24.148438 -60.664062 26.734375 -64.84375 C 29.328125 -69.019531 31.992188 -72.691406 34.734375 -75.859375 C 37.484375 -79.035156 40.25 -81.550781 43.03125 -83.40625 C 45.820312 -85.257812 48.566406 -86.1875 51.265625 -86.1875 Z M 51.265625 -86.1875 "/></g></g></g><g fill="#000000" fill-opacity="1"><g transform="translate(124.757451, 239.401364)"><g><path d="M 51.265625 -86.1875 C 53.273438 -86.1875 54.570312 -85.257812 55.15625 -83.40625 C 55.738281 -81.550781 55.488281 -79.578125 54.40625 -77.484375 C 54.25 -77.328125 54.050781 -77.328125 53.8125 -77.484375 C 53.582031 -77.640625 53.429688 -77.832031 53.359375 -78.0625 C 53.515625 -78.988281 53.1875 -79.757812 52.375 -80.375 C 51.5625 -81 50.304688 -81.3125 48.609375 -81.3125 C 45.273438 -81.3125 41.984375 -79.921875 38.734375 -77.140625 C 35.492188 -74.359375 32.363281 -70.742188 29.34375 -66.296875 C 26.332031 -61.847656 23.53125 -56.878906 20.9375 -51.390625 C 18.34375 -45.898438 16.097656 -40.425781 14.203125 -34.96875 C 12.316406 -29.519531 10.832031 -24.378906 9.75 -19.546875 C 8.664062 -14.710938 8.125 -10.785156 8.125 -7.765625 C 8.125 -5.453125 8.78125 -4.296875 10.09375 -4.296875 C 11.019531 -4.296875 11.925781 -4.679688 12.8125 -5.453125 C 13.707031 -6.222656 14.734375 -7.382812 15.890625 -8.9375 C 16.117188 -9.082031 16.328125 -9.054688 16.515625 -8.859375 C 16.710938 -8.671875 16.773438 -8.425781 16.703125 -8.125 C 15.160156 -5.726562 13.457031 -3.773438 11.59375 -2.265625 C 9.738281 -0.753906 8.15625 0 6.84375 0 C 5.84375 0 5.03125 -0.40625 4.40625 -1.21875 C 3.789062 -2.03125 3.484375 -3.132812 3.484375 -4.53125 C 3.484375 -6.6875 3.867188 -9.484375 4.640625 -12.921875 C 5.410156 -16.367188 6.488281 -20.21875 7.875 -24.46875 C 9.269531 -28.726562 10.953125 -33.195312 12.921875 -37.875 C 14.898438 -42.550781 17.050781 -47.171875 19.375 -51.734375 C 21.695312 -56.296875 24.148438 -60.664062 26.734375 -64.84375 C 29.328125 -69.019531 31.992188 -72.691406 34.734375 -75.859375 C 37.484375 -79.035156 40.25 -81.550781 43.03125 -83.40625 C 45.820312 -85.257812 48.566406 -86.1875 51.265625 -86.1875 Z M 51.265625 -86.1875 "/></g></g></g><g fill="#000000" fill-opacity="1"><g transform="translate(140.300286, 239.401364)"><g><path d="M 6.03125 -21.578125 C 5.800781 -21.421875 5.585938 -21.476562 5.390625 -21.75 C 5.203125 -22.019531 5.1875 -22.269531 5.34375 -22.5 C 6.414062 -23.582031 7.878906 -24.816406 9.734375 -26.203125 C 11.597656 -27.597656 13.457031 -28.765625 15.3125 -29.703125 C 15.925781 -29.703125 16.234375 -29.351562 16.234375 -28.65625 C 15.234375 -26.875 14.25 -24.9375 13.28125 -22.84375 C 12.3125 -20.757812 11.457031 -18.691406 10.71875 -16.640625 C 9.988281 -14.597656 9.390625 -12.628906 8.921875 -10.734375 C 8.460938 -8.835938 8.234375 -7.269531 8.234375 -6.03125 C 8.234375 -4.40625 8.773438 -3.59375 9.859375 -3.59375 C 10.710938 -3.59375 11.546875 -3.957031 12.359375 -4.6875 C 13.171875 -5.425781 14.117188 -6.414062 15.203125 -7.65625 C 15.347656 -7.8125 15.535156 -7.769531 15.765625 -7.53125 C 16.003906 -7.300781 16.046875 -7.035156 15.890625 -6.734375 C 14.492188 -5.023438 13.003906 -3.472656 11.421875 -2.078125 C 9.835938 -0.691406 8.347656 0 6.953125 0 C 4.941406 0 3.9375 -1.273438 3.9375 -3.828125 C 3.9375 -5.296875 4.1875 -7.054688 4.6875 -9.109375 C 5.195312 -11.160156 5.835938 -13.226562 6.609375 -15.3125 C 7.378906 -17.394531 8.25 -19.40625 9.21875 -21.34375 C 10.1875 -23.28125 11.132812 -24.941406 12.0625 -26.328125 C 11.207031 -25.710938 10.140625 -24.921875 8.859375 -23.953125 C 7.585938 -22.984375 6.644531 -22.191406 6.03125 -21.578125 Z M 16.46875 -34.6875 C 16.238281 -34.457031 16.023438 -34.4375 15.828125 -34.625 C 15.640625 -34.820312 15.503906 -35.09375 15.421875 -35.4375 C 15.347656 -35.78125 15.3125 -36.1875 15.3125 -36.65625 C 15.3125 -37.125 15.425781 -37.507812 15.65625 -37.8125 C 17.664062 -40.59375 20.488281 -43.570312 24.125 -46.75 C 24.351562 -46.820312 24.582031 -46.757812 24.8125 -46.5625 C 25.050781 -46.375 25.09375 -46.203125 24.9375 -46.046875 C 23.3125 -44.578125 21.765625 -42.816406 20.296875 -40.765625 C 18.828125 -38.722656 17.550781 -36.695312 16.46875 -34.6875 Z M 16.46875 -34.6875 "/></g></g></g><g fill="#000000" fill-opacity="1"><g transform="translate(157.582984, 239.401364)"><g><path d="M 31.3125 -7.3125 C 31.46875 -7.46875 31.660156 -7.46875 31.890625 -7.3125 C 32.128906 -7.15625 32.207031 -6.921875 32.125 -6.609375 C 30.507812 -4.367188 28.90625 -2.707031 27.3125 -1.625 C 25.726562 -0.539062 24.394531 0 23.3125 0 C 22.613281 0 22.050781 -0.347656 21.625 -1.046875 C 21.207031 -1.742188 20.9375 -2.691406 20.8125 -3.890625 C 20.695312 -5.085938 20.738281 -6.4375 20.9375 -7.9375 C 21.132812 -9.445312 21.460938 -11.015625 21.921875 -12.640625 C 19.835938 -9.390625 17.632812 -6.585938 15.3125 -4.234375 C 12.988281 -1.878906 10.742188 -0.46875 8.578125 0 C 7.191406 0 6.015625 -0.675781 5.046875 -2.03125 C 4.078125 -3.382812 3.59375 -5.492188 3.59375 -8.359375 C 3.59375 -10.910156 4.113281 -13.441406 5.15625 -15.953125 C 6.207031 -18.460938 7.617188 -20.742188 9.390625 -22.796875 C 11.171875 -24.847656 13.222656 -26.488281 15.546875 -27.71875 C 17.867188 -28.957031 20.304688 -29.578125 22.859375 -29.578125 C 24.242188 -29.578125 25.4375 -29.421875 26.4375 -29.109375 C 27.445312 -28.804688 28.378906 -28.34375 29.234375 -27.71875 C 29.691406 -28.101562 30.328125 -28.46875 31.140625 -28.8125 C 31.953125 -29.164062 32.707031 -29.34375 33.40625 -29.34375 C 33.789062 -29.34375 33.90625 -29.148438 33.75 -28.765625 C 31.976562 -26.597656 30.453125 -24.195312 29.171875 -21.5625 C 27.898438 -18.9375 26.914062 -16.382812 26.21875 -13.90625 C 25.519531 -11.4375 25.070312 -9.253906 24.875 -7.359375 C 24.6875 -5.472656 24.820312 -4.179688 25.28125 -3.484375 C 25.675781 -2.941406 26.375 -2.921875 27.375 -3.421875 C 28.382812 -3.921875 29.695312 -5.21875 31.3125 -7.3125 Z M 11.140625 -3.9375 C 11.984375 -3.9375 13.082031 -4.535156 14.4375 -5.734375 C 15.789062 -6.941406 17.203125 -8.507812 18.671875 -10.4375 C 20.140625 -12.375 21.585938 -14.554688 23.015625 -16.984375 C 24.453125 -19.421875 25.710938 -21.878906 26.796875 -24.359375 C 26.484375 -25.367188 25.765625 -26.179688 24.640625 -26.796875 C 23.523438 -27.410156 22.234375 -27.71875 20.765625 -27.71875 C 19.066406 -27.71875 17.460938 -27.273438 15.953125 -26.390625 C 14.441406 -25.503906 13.101562 -24.265625 11.9375 -22.671875 C 10.78125 -21.085938 9.851562 -19.210938 9.15625 -17.046875 C 8.46875 -14.878906 8.125 -12.484375 8.125 -9.859375 C 8.125 -8.160156 8.410156 -6.75 8.984375 -5.625 C 9.566406 -4.5 10.285156 -3.9375 11.140625 -3.9375 Z M 11.140625 -3.9375 "/></g></g></g><g fill="#000000" fill-opacity="1"><g transform="translate(191.684423, 239.401364)"><g><path d="M 41.296875 -24.359375 C 41.296875 -25.984375 40.71875 -26.796875 39.5625 -26.796875 C 38.394531 -26.796875 37.113281 -26.210938 35.71875 -25.046875 C 34.332031 -23.890625 32.882812 -22.226562 31.375 -20.0625 C 29.863281 -17.894531 28.351562 -15.242188 26.84375 -12.109375 C 25.34375 -8.984375 23.894531 -5.453125 22.5 -1.515625 C 22.34375 -1.046875 21.9375 -0.675781 21.28125 -0.40625 C 20.625 -0.132812 19.988281 0 19.375 0 C 18.445312 0 18.097656 -0.347656 18.328125 -1.046875 C 18.796875 -2.429688 19.429688 -4.164062 20.234375 -6.25 C 21.046875 -8.34375 21.816406 -10.492188 22.546875 -12.703125 C 23.285156 -14.910156 23.925781 -16.976562 24.46875 -18.90625 C 25.007812 -20.84375 25.28125 -22.351562 25.28125 -23.4375 C 25.28125 -25.601562 24.625 -26.6875 23.3125 -26.6875 C 21.300781 -26.6875 18.75 -24.519531 15.65625 -20.1875 C 12.5625 -15.851562 9.625 -9.628906 6.84375 -1.515625 C 6.6875 -1.046875 6.335938 -0.675781 5.796875 -0.40625 C 5.253906 -0.132812 4.675781 0 4.0625 0 C 3.675781 0 3.363281 -0.078125 3.125 -0.234375 C 2.894531 -0.390625 2.859375 -0.660156 3.015625 -1.046875 C 3.628906 -2.742188 4.285156 -4.617188 4.984375 -6.671875 C 5.679688 -8.722656 6.378906 -10.789062 7.078125 -12.875 C 7.773438 -14.96875 8.410156 -17.019531 8.984375 -19.03125 C 9.566406 -21.039062 10.050781 -22.929688 10.4375 -24.703125 C 10.820312 -26.097656 10.628906 -26.796875 9.859375 -26.796875 C 9.242188 -26.796875 8.507812 -26.367188 7.65625 -25.515625 C 6.800781 -24.671875 5.953125 -23.664062 5.109375 -22.5 C 4.867188 -22.34375 4.632812 -22.363281 4.40625 -22.5625 C 4.175781 -22.757812 4.140625 -22.972656 4.296875 -23.203125 C 5.453125 -24.828125 6.742188 -26.316406 8.171875 -27.671875 C 9.609375 -29.023438 11.0625 -29.703125 12.53125 -29.703125 C 13.53125 -29.703125 14.164062 -29.3125 14.4375 -28.53125 C 14.707031 -27.757812 14.726562 -26.832031 14.5 -25.75 C 14.113281 -24.050781 13.742188 -22.484375 13.390625 -21.046875 C 13.046875 -19.617188 12.601562 -18.171875 12.0625 -16.703125 C 14.070312 -20.566406 16.296875 -23.695312 18.734375 -26.09375 C 21.171875 -28.5 23.585938 -29.703125 25.984375 -29.703125 C 26.910156 -29.703125 27.660156 -29.351562 28.234375 -28.65625 C 28.816406 -27.957031 29.109375 -26.988281 29.109375 -25.75 C 29.109375 -24.125 28.953125 -22.5 28.640625 -20.875 C 28.335938 -19.25 27.878906 -17.585938 27.265625 -15.890625 C 29.578125 -20.296875 32.066406 -23.695312 34.734375 -26.09375 C 37.410156 -28.5 40.0625 -29.703125 42.6875 -29.703125 C 43.539062 -29.703125 44.238281 -29.390625 44.78125 -28.765625 C 45.320312 -28.148438 45.59375 -27.335938 45.59375 -26.328125 C 45.59375 -24.941406 45.300781 -23.414062 44.71875 -21.75 C 44.132812 -20.082031 43.492188 -18.359375 42.796875 -16.578125 C 42.109375 -14.804688 41.472656 -13.050781 40.890625 -11.3125 C 40.304688 -9.570312 40.015625 -7.925781 40.015625 -6.375 C 40.015625 -4.445312 40.597656 -3.484375 41.765625 -3.484375 C 42.992188 -3.484375 44.691406 -4.757812 46.859375 -7.3125 C 47.015625 -7.46875 47.1875 -7.425781 47.375 -7.1875 C 47.570312 -6.957031 47.59375 -6.6875 47.4375 -6.375 C 46.976562 -5.757812 46.398438 -5.082031 45.703125 -4.34375 C 45.003906 -3.613281 44.285156 -2.921875 43.546875 -2.265625 C 42.816406 -1.609375 42.023438 -1.066406 41.171875 -0.640625 C 40.328125 -0.210938 39.519531 0 38.75 0 C 36.96875 0 36.078125 -1.46875 36.078125 -4.40625 C 36.078125 -6.257812 36.347656 -8.132812 36.890625 -10.03125 C 37.429688 -11.925781 38.03125 -13.742188 38.6875 -15.484375 C 39.34375 -17.222656 39.941406 -18.863281 40.484375 -20.40625 C 41.023438 -21.957031 41.296875 -23.273438 41.296875 -24.359375 Z M 41.296875 -24.359375 "/></g></g></g><g fill="#000000" fill-opacity="1"><g transform="translate(239.588819, 239.401364)"><g><path d="M 16.125 -29.703125 C 17.664062 -29.703125 18.957031 -29.445312 20 -28.9375 C 21.050781 -28.4375 21.578125 -27.878906 21.578125 -27.265625 C 21.578125 -26.410156 21.398438 -25.441406 21.046875 -24.359375 C 20.703125 -23.273438 20.335938 -22.382812 19.953125 -21.6875 C 19.796875 -21.53125 19.582031 -21.507812 19.3125 -21.625 C 19.039062 -21.75 18.945312 -21.925781 19.03125 -22.15625 C 19.257812 -22.695312 19.410156 -23.316406 19.484375 -24.015625 C 19.566406 -24.710938 19.53125 -25.332031 19.375 -25.875 C 18.988281 -27.414062 17.90625 -28.1875 16.125 -28.1875 C 14.8125 -28.1875 13.75 -27.800781 12.9375 -27.03125 C 12.125 -26.257812 11.71875 -25.097656 11.71875 -23.546875 C 11.71875 -22.304688 12.046875 -21.125 12.703125 -20 C 13.359375 -18.882812 14.09375 -17.765625 14.90625 -16.640625 C 15.71875 -15.523438 16.453125 -14.328125 17.109375 -13.046875 C 17.765625 -11.773438 18.09375 -10.363281 18.09375 -8.8125 C 18.09375 -6.34375 17.222656 -4.253906 15.484375 -2.546875 C 13.742188 -0.847656 11.132812 0 7.65625 0 C 5.257812 0 3.285156 -0.421875 1.734375 -1.265625 C 0.191406 -2.117188 -0.578125 -3.007812 -0.578125 -3.9375 C -0.578125 -4.632812 -0.15625 -5.675781 0.6875 -7.0625 C 1.539062 -8.457031 2.507812 -9.582031 3.59375 -10.4375 C 3.820312 -10.59375 4.035156 -10.550781 4.234375 -10.3125 C 4.429688 -10.082031 4.453125 -9.851562 4.296875 -9.625 C 3.671875 -9.007812 3.203125 -8.296875 2.890625 -7.484375 C 2.585938 -6.671875 2.515625 -5.957031 2.671875 -5.34375 C 2.898438 -4.019531 3.5 -3.03125 4.46875 -2.375 C 5.4375 -1.71875 6.578125 -1.390625 7.890625 -1.390625 C 9.898438 -1.390625 11.460938 -1.929688 12.578125 -3.015625 C 13.703125 -4.097656 14.265625 -5.488281 14.265625 -7.1875 C 14.265625 -8.65625 13.914062 -10.023438 13.21875 -11.296875 C 12.53125 -12.578125 11.78125 -13.816406 10.96875 -15.015625 C 10.15625 -16.210938 9.414062 -17.410156 8.75 -18.609375 C 8.09375 -19.816406 7.765625 -21.113281 7.765625 -22.5 C 7.765625 -24.507812 8.519531 -26.210938 10.03125 -27.609375 C 11.539062 -29.003906 13.570312 -29.703125 16.125 -29.703125 Z M 16.125 -29.703125 "/></g></g></g><g fill="#000000" fill-opacity="1"><g transform="translate(261.395186, 239.401364)"><g><path d="M 54.640625 -87.703125 C 57.109375 -87.703125 58.90625 -86.734375 60.03125 -84.796875 C 61.15625 -82.859375 61.40625 -80.613281 60.78125 -78.0625 C 60.320312 -77.601562 59.9375 -77.644531 59.625 -78.1875 C 59.46875 -79.726562 58.789062 -81.0625 57.59375 -82.1875 C 56.394531 -83.3125 54.554688 -83.875 52.078125 -83.875 C 48.597656 -83.875 45.0625 -82.828125 41.46875 -80.734375 C 37.875 -78.648438 34.316406 -75.171875 30.796875 -70.296875 C 27.273438 -65.421875 23.832031 -58.976562 20.46875 -50.96875 C 17.101562 -42.96875 13.875 -33.054688 10.78125 -21.234375 C 11.476562 -22.234375 12.269531 -23.21875 13.15625 -24.1875 C 14.050781 -25.15625 15.039062 -26.046875 16.125 -26.859375 C 17.207031 -27.671875 18.328125 -28.328125 19.484375 -28.828125 C 20.648438 -29.328125 21.8125 -29.578125 22.96875 -29.578125 C 24.75 -29.578125 26.003906 -28.84375 26.734375 -27.375 C 27.472656 -25.90625 27.84375 -24.203125 27.84375 -22.265625 C 27.84375 -19.796875 27.222656 -17.226562 25.984375 -14.5625 C 24.742188 -11.894531 23.175781 -9.476562 21.28125 -7.3125 C 19.382812 -5.144531 17.316406 -3.363281 15.078125 -1.96875 C 12.835938 -0.582031 10.75 0.109375 8.8125 0.109375 C 7.425781 0.109375 6.285156 -0.289062 5.390625 -1.09375 C 4.503906 -1.90625 4.0625 -3.320312 4.0625 -5.34375 C 4.0625 -7.039062 4.332031 -9.28125 4.875 -12.0625 C 5.414062 -14.84375 6.148438 -17.914062 7.078125 -21.28125 C 8.003906 -24.644531 9.125 -28.179688 10.4375 -31.890625 C 11.75 -35.609375 13.179688 -39.285156 14.734375 -42.921875 C 21.222656 -58.234375 27.734375 -69.523438 34.265625 -76.796875 C 40.804688 -84.066406 47.597656 -87.703125 54.640625 -87.703125 Z M 20.421875 -25.75 C 19.253906 -25.75 18.015625 -25.378906 16.703125 -24.640625 C 15.390625 -23.910156 14.148438 -22.8125 12.984375 -21.34375 C 11.828125 -19.875 10.84375 -18.015625 10.03125 -15.765625 C 9.21875 -13.523438 8.695312 -10.9375 8.46875 -8 C 8.3125 -6.300781 8.519531 -5.101562 9.09375 -4.40625 C 9.675781 -3.707031 10.550781 -3.359375 11.71875 -3.359375 C 13.1875 -3.359375 14.65625 -3.84375 16.125 -4.8125 C 17.59375 -5.78125 18.90625 -7.035156 20.0625 -8.578125 C 21.226562 -10.128906 22.175781 -11.867188 22.90625 -13.796875 C 23.644531 -15.734375 24.015625 -17.671875 24.015625 -19.609375 C 24.015625 -21.847656 23.664062 -23.429688 22.96875 -24.359375 C 22.269531 -25.285156 21.421875 -25.75 20.421875 -25.75 Z M 20.421875 -25.75 "/></g></g></g><g fill="#000000" fill-opacity="1"><g transform="translate(290.045027, 239.401364)"><g><path d="M 7.546875 0 C 6.535156 0 5.644531 -0.484375 4.875 -1.453125 C 4.101562 -2.421875 3.71875 -3.675781 3.71875 -5.21875 C 3.71875 -6.457031 3.890625 -7.90625 4.234375 -9.5625 C 4.578125 -11.226562 5.039062 -12.988281 5.625 -14.84375 C 6.207031 -16.695312 6.921875 -18.550781 7.765625 -20.40625 C 8.617188 -22.269531 9.585938 -24.015625 10.671875 -25.640625 C 9.816406 -25.015625 8.925781 -24.332031 8 -23.59375 C 7.070312 -22.863281 6.300781 -22.191406 5.6875 -21.578125 C 5.457031 -21.421875 5.265625 -21.476562 5.109375 -21.75 C 4.953125 -22.019531 4.910156 -22.269531 4.984375 -22.5 C 5.523438 -23.039062 6.222656 -23.660156 7.078125 -24.359375 C 7.929688 -25.054688 8.835938 -25.75 9.796875 -26.4375 C 10.765625 -27.132812 11.769531 -27.8125 12.8125 -28.46875 C 13.863281 -29.132812 14.851562 -29.695312 15.78125 -30.15625 C 16.082031 -30.238281 16.328125 -30.160156 16.515625 -29.921875 C 16.710938 -29.691406 16.773438 -29.421875 16.703125 -29.109375 C 14.222656 -25.941406 12.226562 -22.441406 10.71875 -18.609375 C 9.21875 -14.785156 8.46875 -11.132812 8.46875 -7.65625 C 8.46875 -5.414062 9.125 -4.296875 10.4375 -4.296875 C 11.445312 -4.296875 12.703125 -4.972656 14.203125 -6.328125 C 15.710938 -7.679688 17.28125 -9.457031 18.90625 -11.65625 C 20.53125 -13.863281 22.171875 -16.359375 23.828125 -19.140625 C 25.492188 -21.921875 27.023438 -24.742188 28.421875 -27.609375 C 28.648438 -28.148438 29.09375 -28.632812 29.75 -29.0625 C 30.40625 -29.488281 31.125 -29.703125 31.90625 -29.703125 C 32.90625 -29.703125 33.25 -29.390625 32.9375 -28.765625 C 31.851562 -26.753906 30.882812 -24.878906 30.03125 -23.140625 C 29.1875 -21.398438 28.492188 -19.675781 27.953125 -17.96875 C 27.410156 -16.269531 27.003906 -14.53125 26.734375 -12.75 C 26.460938 -10.976562 26.328125 -9.046875 26.328125 -6.953125 C 26.328125 -4.484375 27.023438 -3.25 28.421875 -3.25 C 29.035156 -3.25 29.726562 -3.578125 30.5 -4.234375 C 31.28125 -4.890625 32.054688 -5.757812 32.828125 -6.84375 C 33.054688 -7 33.285156 -7 33.515625 -6.84375 C 33.753906 -6.6875 33.796875 -6.414062 33.640625 -6.03125 C 32.554688 -4.40625 31.296875 -2.992188 29.859375 -1.796875 C 28.429688 -0.597656 27.0625 0 25.75 0 C 24.75 0 23.898438 -0.5 23.203125 -1.5 C 22.503906 -2.507812 22.15625 -3.863281 22.15625 -5.5625 C 22.15625 -7.425781 22.328125 -9.421875 22.671875 -11.546875 C 23.023438 -13.671875 23.585938 -15.816406 24.359375 -17.984375 C 22.890625 -15.117188 21.34375 -12.582031 19.71875 -10.375 C 18.09375 -8.175781 16.523438 -6.300781 15.015625 -4.75 C 13.515625 -3.207031 12.101562 -2.03125 10.78125 -1.21875 C 9.46875 -0.40625 8.390625 0 7.546875 0 Z M 7.546875 0 "/></g></g></g><g fill="#000000" fill-opacity="1"><g transform="translate(324.726434, 239.401364)"><g><path d="M 14.03125 -26.453125 C 14.03125 -25.285156 13.914062 -23.925781 13.6875 -22.375 C 13.457031 -20.832031 13.148438 -19.289062 12.765625 -17.75 C 14.304688 -21.457031 16.003906 -24.375 17.859375 -26.5 C 19.710938 -28.632812 21.722656 -29.703125 23.890625 -29.703125 C 24.742188 -29.703125 25.519531 -29.46875 26.21875 -29 C 26.914062 -28.53125 27.265625 -27.875 27.265625 -27.03125 C 27.265625 -26.40625 27.03125 -25.609375 26.5625 -24.640625 C 26.101562 -23.679688 25.640625 -22.96875 25.171875 -22.5 C 24.703125 -22.195312 24.46875 -22.316406 24.46875 -22.859375 C 24.46875 -24.171875 23.582031 -24.828125 21.8125 -24.828125 C 19.101562 -24.828125 16.664062 -22.796875 14.5 -18.734375 C 12.332031 -14.671875 10.285156 -9.046875 8.359375 -1.859375 C 8.203125 -1.085938 7.675781 -0.582031 6.78125 -0.34375 C 5.894531 -0.113281 5.144531 0 4.53125 0 C 3.675781 0 3.476562 -0.425781 3.9375 -1.28125 C 4.632812 -2.90625 5.289062 -4.660156 5.90625 -6.546875 C 6.53125 -8.441406 7.128906 -10.359375 7.703125 -12.296875 C 8.285156 -14.234375 8.769531 -16.128906 9.15625 -17.984375 C 9.550781 -19.835938 9.863281 -21.535156 10.09375 -23.078125 C 10.40625 -25.398438 10.019531 -26.5625 8.9375 -26.5625 C 8.3125 -26.5625 7.59375 -26.210938 6.78125 -25.515625 C 5.96875 -24.816406 5.21875 -24.003906 4.53125 -23.078125 C 4.21875 -22.929688 3.941406 -22.953125 3.703125 -23.140625 C 3.472656 -23.335938 3.4375 -23.585938 3.59375 -23.890625 C 4.757812 -25.359375 6.054688 -26.691406 7.484375 -27.890625 C 8.910156 -29.097656 10.242188 -29.703125 11.484375 -29.703125 C 13.179688 -29.703125 14.03125 -28.617188 14.03125 -26.453125 Z M 14.03125 -26.453125 "/></g></g></g><g fill="#000000" fill-opacity="1"><g transform="translate(347.344735, 239.401364)"><g><path d="M 26.21875 -31.3125 C 26.445312 -31.46875 26.675781 -31.445312 26.90625 -31.25 C 27.144531 -31.0625 27.1875 -30.816406 27.03125 -30.515625 C 26.40625 -29.578125 25.628906 -28.738281 24.703125 -28 C 23.773438 -27.269531 22.617188 -26.945312 21.234375 -27.03125 C 21.921875 -25.863281 22.265625 -24.351562 22.265625 -22.5 C 22.265625 -20.726562 21.992188 -19.101562 21.453125 -17.625 C 20.910156 -16.15625 20.289062 -14.765625 19.59375 -13.453125 C 18.90625 -12.140625 18.191406 -10.898438 17.453125 -9.734375 C 16.722656 -8.578125 16.144531 -7.378906 15.71875 -6.140625 C 15.289062 -4.910156 15.097656 -3.65625 15.140625 -2.375 C 15.179688 -1.101562 15.625 0.304688 16.46875 1.859375 C 17.164062 3.171875 17.800781 4.347656 18.375 5.390625 C 18.957031 6.429688 19.460938 7.4375 19.890625 8.40625 C 20.316406 9.375 20.625 10.359375 20.8125 11.359375 C 21.007812 12.367188 21.109375 13.453125 21.109375 14.609375 C 21.109375 16.472656 20.722656 18.234375 19.953125 19.890625 C 19.179688 21.554688 18.0625 23.023438 16.59375 24.296875 C 15.125 25.578125 13.34375 26.582031 11.25 27.3125 C 9.164062 28.050781 6.804688 28.421875 4.171875 28.421875 C 1.460938 28.421875 -0.96875 28.03125 -3.125 27.25 C -5.289062 26.476562 -7.128906 25.453125 -8.640625 24.171875 C -10.148438 22.898438 -11.289062 21.429688 -12.0625 19.765625 C -12.832031 18.109375 -13.21875 16.390625 -13.21875 14.609375 C -13.21875 12.296875 -12.382812 10.269531 -10.71875 8.53125 C -9.0625 6.789062 -6.6875 5.492188 -3.59375 4.640625 C -3.207031 4.640625 -2.957031 4.773438 -2.84375 5.046875 C -2.726562 5.316406 -2.785156 5.566406 -3.015625 5.796875 C -4.640625 6.421875 -5.953125 7.347656 -6.953125 8.578125 C -7.960938 9.816406 -8.46875 11.484375 -8.46875 13.578125 C -8.46875 17.515625 -7.113281 20.679688 -4.40625 23.078125 C -1.695312 25.484375 1.859375 26.6875 6.265625 26.6875 C 9.972656 26.6875 12.71875 25.738281 14.5 23.84375 C 16.28125 21.945312 17.171875 19.488281 17.171875 16.46875 C 17.171875 14.6875 16.898438 13.097656 16.359375 11.703125 C 15.816406 10.316406 15.003906 8.734375 13.921875 6.953125 C 12.453125 4.484375 11.8125 2.109375 12 -0.171875 C 12.195312 -2.453125 12.992188 -4.832031 14.390625 -7.3125 C 14.535156 -7.613281 14.707031 -7.898438 14.90625 -8.171875 C 15.101562 -8.441406 15.273438 -8.769531 15.421875 -9.15625 C 14.578125 -8.226562 13.59375 -7.414062 12.46875 -6.71875 C 11.34375 -6.03125 10.394531 -5.6875 9.625 -5.6875 C 5.832031 -5.6875 3.9375 -8.160156 3.9375 -13.109375 C 3.9375 -14.734375 4.242188 -16.507812 4.859375 -18.4375 C 5.484375 -20.375 6.351562 -22.171875 7.46875 -23.828125 C 8.59375 -25.492188 9.910156 -26.867188 11.421875 -27.953125 C 12.929688 -29.035156 14.613281 -29.578125 16.46875 -29.578125 C 19.175781 -29.578125 21.265625 -29.671875 22.734375 -29.859375 C 24.203125 -30.054688 25.363281 -30.539062 26.21875 -31.3125 Z M 16.9375 -11.953125 C 17.394531 -13.035156 17.78125 -14.15625 18.09375 -15.3125 C 18.40625 -16.46875 18.5625 -17.628906 18.5625 -18.796875 C 18.5625 -21.035156 18.191406 -22.789062 17.453125 -24.0625 C 16.722656 -25.34375 15.546875 -25.984375 13.921875 -25.984375 C 12.066406 -25.984375 10.5 -25.054688 9.21875 -23.203125 C 7.945312 -21.347656 7.3125 -18.71875 7.3125 -15.3125 C 7.3125 -13.070312 7.675781 -11.445312 8.40625 -10.4375 C 9.144531 -9.4375 10.25 -8.9375 11.71875 -8.9375 C 12.5625 -8.9375 13.488281 -9.207031 14.5 -9.75 C 15.507812 -10.289062 16.320312 -11.023438 16.9375 -11.953125 Z M 16.9375 -11.953125 "/></g></g></g><g fill="#bf8789" fill-opacity="1"><g transform="translate(244.030536, 276.735464)"><g><path d="M 7.75 -8.953125 C 7.945312 -8.953125 8.109375 -8.878906 8.234375 -8.734375 C 8.367188 -8.597656 8.4375 -8.429688 8.4375 -8.234375 L 8.4375 -0.78125 C 8.4375 -0.5625 8.359375 -0.375 8.203125 -0.21875 C 8.054688 -0.0703125 7.875 0 7.65625 0 C 7.539062 0 7.421875 -0.015625 7.296875 -0.046875 C 7.179688 -0.0859375 7.101562 -0.144531 7.0625 -0.21875 L 2.359375 -6.171875 L 2.359375 -0.71875 C 2.359375 -0.507812 2.289062 -0.335938 2.15625 -0.203125 C 2.03125 -0.0664062 1.863281 0 1.65625 0 C 1.445312 0 1.273438 -0.0664062 1.140625 -0.203125 C 1.015625 -0.335938 0.953125 -0.507812 0.953125 -0.71875 L 0.953125 -8.171875 C 0.953125 -8.390625 1.023438 -8.570312 1.171875 -8.71875 C 1.328125 -8.875 1.515625 -8.953125 1.734375 -8.953125 C 1.867188 -8.953125 1.992188 -8.925781 2.109375 -8.875 C 2.234375 -8.820312 2.328125 -8.753906 2.390625 -8.671875 L 7.046875 -2.734375 L 7.046875 -8.234375 C 7.046875 -8.429688 7.109375 -8.597656 7.234375 -8.734375 C 7.367188 -8.878906 7.539062 -8.953125 7.75 -8.953125 Z M 7.75 -8.953125 "/></g></g></g><g fill="#bf8789" fill-opacity="1"><g transform="translate(263.656857, 276.735464)"><g><path d="M 7.96875 -1 C 8.019531 -0.882812 8.046875 -0.78125 8.046875 -0.6875 C 8.046875 -0.46875 7.972656 -0.285156 7.828125 -0.140625 C 7.679688 -0.00390625 7.515625 0.0625 7.328125 0.0625 C 7.171875 0.0625 7.03125 0.015625 6.90625 -0.078125 C 6.78125 -0.171875 6.6875 -0.296875 6.625 -0.453125 L 5.953125 -2 L 2.140625 -2 L 1.484375 -0.453125 C 1.421875 -0.285156 1.328125 -0.15625 1.203125 -0.0625 C 1.078125 0.0195312 0.945312 0.0625 0.8125 0.0625 C 0.582031 0.0625 0.410156 0.00390625 0.296875 -0.109375 C 0.179688 -0.234375 0.125 -0.394531 0.125 -0.59375 C 0.125 -0.675781 0.140625 -0.757812 0.171875 -0.84375 L 3.34375 -8.484375 C 3.414062 -8.660156 3.519531 -8.796875 3.65625 -8.890625 C 3.789062 -8.984375 3.941406 -9.019531 4.109375 -9 C 4.265625 -9 4.40625 -8.953125 4.53125 -8.859375 C 4.664062 -8.773438 4.765625 -8.648438 4.828125 -8.484375 Z M 2.78125 -3.46875 L 5.328125 -3.46875 L 4.03125 -6.46875 Z M 2.78125 -3.46875 "/></g></g></g><g fill="#bf8789" fill-opacity="1"><g transform="translate(282.055946, 276.735464)"><g><path d="M 2.5625 -0.78125 C 2.5625 -0.5625 2.476562 -0.375 2.3125 -0.21875 C 2.15625 -0.0703125 1.96875 0 1.75 0 C 1.519531 0 1.328125 -0.0703125 1.171875 -0.21875 C 1.023438 -0.375 0.953125 -0.5625 0.953125 -0.78125 L 0.953125 -8.171875 C 0.953125 -8.390625 1.03125 -8.570312 1.1875 -8.71875 C 1.34375 -8.875 1.539062 -8.953125 1.78125 -8.953125 C 1.988281 -8.953125 2.171875 -8.875 2.328125 -8.71875 C 2.484375 -8.570312 2.5625 -8.390625 2.5625 -8.171875 Z M 2.5625 -0.78125 "/></g></g></g><g fill="#bf8789" fill-opacity="1"><g transform="translate(295.801759, 276.735464)"><g><path d="M 5.890625 -1.5 C 6.109375 -1.5 6.289062 -1.425781 6.4375 -1.28125 C 6.59375 -1.144531 6.671875 -0.960938 6.671875 -0.734375 C 6.671875 -0.523438 6.59375 -0.347656 6.4375 -0.203125 C 6.289062 -0.0664062 6.109375 0 5.890625 0 L 1.734375 0 C 1.515625 0 1.328125 -0.0703125 1.171875 -0.21875 C 1.023438 -0.375 0.953125 -0.5625 0.953125 -0.78125 L 0.953125 -8.171875 C 0.953125 -8.390625 1.03125 -8.570312 1.1875 -8.71875 C 1.34375 -8.875 1.539062 -8.953125 1.78125 -8.953125 C 1.988281 -8.953125 2.171875 -8.875 2.328125 -8.71875 C 2.484375 -8.570312 2.5625 -8.390625 2.5625 -8.171875 L 2.5625 -1.5 Z M 5.890625 -1.5 "/></g></g></g><g fill="#bf8789" fill-opacity="1"><g transform="translate(313.216503, 276.735464)"><g><path d="M 3.828125 0.125 C 3.222656 0.125 2.679688 0.0507812 2.203125 -0.09375 C 1.722656 -0.25 1.273438 -0.507812 0.859375 -0.875 C 0.628906 -1.082031 0.515625 -1.3125 0.515625 -1.5625 C 0.515625 -1.757812 0.585938 -1.929688 0.734375 -2.078125 C 0.878906 -2.222656 1.050781 -2.296875 1.25 -2.296875 C 1.414062 -2.296875 1.5625 -2.242188 1.6875 -2.140625 C 2.03125 -1.859375 2.363281 -1.65625 2.6875 -1.53125 C 3.007812 -1.40625 3.390625 -1.34375 3.828125 -1.34375 C 4.304688 -1.34375 4.71875 -1.445312 5.0625 -1.65625 C 5.40625 -1.875 5.578125 -2.140625 5.578125 -2.453125 C 5.578125 -2.835938 5.40625 -3.140625 5.0625 -3.359375 C 4.726562 -3.578125 4.191406 -3.738281 3.453125 -3.84375 C 1.585938 -4.113281 0.65625 -4.984375 0.65625 -6.453125 C 0.65625 -6.992188 0.796875 -7.460938 1.078125 -7.859375 C 1.359375 -8.253906 1.738281 -8.554688 2.21875 -8.765625 C 2.707031 -8.972656 3.25 -9.078125 3.84375 -9.078125 C 4.382812 -9.078125 4.890625 -8.992188 5.359375 -8.828125 C 5.835938 -8.671875 6.234375 -8.457031 6.546875 -8.1875 C 6.796875 -8 6.921875 -7.773438 6.921875 -7.515625 C 6.921875 -7.316406 6.847656 -7.144531 6.703125 -7 C 6.554688 -6.851562 6.382812 -6.78125 6.1875 -6.78125 C 6.0625 -6.78125 5.945312 -6.816406 5.84375 -6.890625 C 5.625 -7.066406 5.3125 -7.226562 4.90625 -7.375 C 4.507812 -7.53125 4.15625 -7.609375 3.84375 -7.609375 C 3.3125 -7.609375 2.894531 -7.503906 2.59375 -7.296875 C 2.300781 -7.097656 2.15625 -6.835938 2.15625 -6.515625 C 2.15625 -6.148438 2.304688 -5.875 2.609375 -5.6875 C 2.910156 -5.5 3.382812 -5.347656 4.03125 -5.234375 C 4.769531 -5.097656 5.359375 -4.929688 5.796875 -4.734375 C 6.234375 -4.535156 6.5625 -4.265625 6.78125 -3.921875 C 7.007812 -3.578125 7.125 -3.117188 7.125 -2.546875 C 7.125 -2.003906 6.972656 -1.53125 6.671875 -1.125 C 6.367188 -0.726562 5.960938 -0.421875 5.453125 -0.203125 C 4.953125 0.015625 4.410156 0.125 3.828125 0.125 Z M 3.828125 0.125 "/></g></g></g><path fill="#fad0d0" d="M 192.964844 96.683594 C 191.296875 95.160156 189.480469 93.671875 187.5625 92.234375 C 180.828125 86.207031 172.378906 79.230469 163.410156 71.996094 C 143.269531 55.75 117 52.179688 117.28125 70.371094 C 117.480469 83.035156 127.082031 100.882812 138.222656 112.164062 C 140.980469 116.53125 144.964844 120.96875 150.414062 125.269531 C 162.757812 135.015625 190.042969 141.511719 203.6875 134.042969 C 220.25 124.96875 207.910156 110.328125 192.964844 96.683594 Z M 192.964844 96.683594 " fill-opacity="1" fill-rule="nonzero"/><path fill="#f7acae" d="M 140.34375 81.089844 C 150.441406 73.011719 172.324219 80.828125 187.5625 92.234375 C 180.828125 86.207031 172.378906 79.230469 163.410156 71.996094 C 143.269531 55.75 117 52.179688 117.28125 70.371094 C 117.480469 83.035156 127.082031 100.882812 138.222656 112.164062 C 130.144531 99.367188 132.6875 87.21875 140.34375 81.089844 Z M 140.34375 81.089844 " fill-opacity="1" fill-rule="nonzero"/><g clip-path="url(#f9f01773d6)"><path fill="#000000" d="M 233.269531 127.230469 C 228.234375 123.796875 223.085938 120.449219 217.488281 117.914062 C 215.703125 117.117188 213.878906 116.40625 212.015625 115.800781 C 211.28125 113.667969 210.214844 111.691406 209.046875 109.816406 C 207.382812 107.183594 205.449219 104.757812 203.378906 102.464844 C 201.277344 100.203125 199.109375 98.046875 196.871094 95.945312 C 192.398438 91.75 187.734375 87.785156 182.929688 83.996094 C 178.128906 80.210938 173.207031 76.574219 168.195312 73.078125 C 163.175781 69.582031 158.074219 66.214844 152.785156 63.109375 C 150.148438 61.558594 147.320312 60.132812 144.332031 59.234375 C 141.347656 58.324219 138.191406 57.839844 135.03125 58.074219 C 131.886719 58.300781 128.699219 59.324219 126.195312 61.390625 C 124.949219 62.417969 123.917969 63.703125 123.15625 65.125 C 122.394531 66.546875 121.945312 68.113281 121.722656 69.683594 C 121.316406 72.792969 121.472656 75.941406 122.09375 78.996094 C 122.710938 82.050781 123.847656 84.953125 125.160156 87.734375 C 125.527344 88.503906 125.914062 89.265625 126.308594 90.015625 C 124.253906 92.125 122.953125 94.882812 122.300781 97.691406 C 121.933594 99.222656 121.730469 100.773438 121.664062 102.339844 C 121.574219 103.902344 121.636719 105.46875 121.8125 107.015625 C 122.136719 110.117188 122.917969 113.136719 123.929688 116.058594 C 125.992188 121.894531 128.988281 127.328125 132.410156 132.417969 C 135.835938 137.515625 139.667969 142.3125 143.738281 146.886719 C 145.773438 149.175781 147.859375 151.40625 150.0625 153.554688 C 152.257812 155.695312 154.503906 157.765625 156.785156 159.800781 C 161.328125 163.882812 165.976562 167.832031 170.664062 171.738281 C 175.34375 175.65625 180.066406 179.511719 184.804688 183.355469 C 189.535156 187.203125 194.320312 190.984375 199.117188 194.753906 C 203.929688 198.503906 208.710938 202.285156 213.628906 205.902344 C 213.664062 205.929688 213.714844 205.921875 213.746094 205.886719 C 213.773438 205.847656 213.765625 205.796875 213.730469 205.769531 L 213.726562 205.765625 C 204.109375 198.285156 194.761719 190.441406 185.363281 182.679688 C 175.992188 174.886719 166.6875 167 157.644531 158.851562 C 155.382812 156.8125 153.15625 154.738281 150.996094 152.613281 C 148.84375 150.492188 146.777344 148.257812 144.769531 145.976562 C 140.757812 141.425781 136.988281 136.652344 133.632812 131.609375 C 130.304688 126.558594 127.320312 121.253906 125.296875 115.582031 C 123.292969 109.949219 122.3125 103.816406 123.640625 98.011719 C 124.199219 95.503906 125.265625 93.101562 126.945312 91.207031 C 129.269531 95.453125 131.972656 99.464844 134.726562 103.414062 C 138.167969 108.492188 142.425781 113.003906 147.066406 116.984375 C 151.734375 120.945312 156.796875 124.457031 162.246094 127.261719 C 164.972656 128.648438 167.8125 129.859375 170.8125 130.59375 C 172.308594 130.953125 173.871094 131.164062 175.429688 131.03125 C 175.660156 131.015625 175.890625 130.988281 176.125 130.953125 C 177.003906 131.417969 177.925781 131.78125 178.863281 132.074219 C 180.390625 132.527344 181.863281 132.847656 183.390625 133.144531 C 186.429688 133.707031 189.535156 134.015625 192.652344 133.90625 C 195.792969 133.800781 198.859375 133.195312 201.84375 132.269531 C 204.800781 131.316406 207.757812 129.976562 210.09375 127.65625 C 211.238281 126.492188 212.1875 125.023438 212.601562 123.386719 C 213.039062 121.761719 213.007812 120.074219 212.730469 118.488281 C 212.621094 117.910156 212.488281 117.34375 212.328125 116.789062 C 213.972656 117.316406 215.589844 117.933594 217.171875 118.636719 C 222.714844 121.09375 227.917969 124.285156 233 127.640625 C 238.078125 131.007812 243.058594 134.527344 248.0625 138.011719 C 248.097656 138.035156 248.152344 138.027344 248.175781 137.988281 C 248.203125 137.953125 248.195312 137.902344 248.160156 137.875 C 243.214844 134.300781 238.296875 130.691406 233.269531 127.230469 Z M 123.289062 78.753906 C 122.726562 75.832031 122.605469 72.804688 123.019531 69.871094 C 123.238281 68.433594 123.660156 67.023438 124.351562 65.765625 C 125.042969 64.507812 125.964844 63.378906 127.082031 62.476562 C 129.324219 60.667969 132.21875 59.746094 135.136719 59.566406 C 138.066406 59.363281 141.042969 59.828125 143.875 60.703125 C 146.726562 61.582031 149.378906 62.929688 151.984375 64.480469 C 157.199219 67.570312 162.265625 70.949219 167.234375 74.445312 C 172.207031 77.949219 177.082031 81.585938 181.839844 85.371094 C 186.589844 89.160156 191.25 93.0625 195.675781 97.214844 C 197.882812 99.285156 200.046875 101.425781 202.097656 103.625 C 204.117188 105.851562 206 108.207031 207.597656 110.730469 C 208.496094 112.160156 209.320312 113.652344 209.960938 115.191406 C 209.570312 115.085938 209.179688 114.984375 208.78125 114.890625 C 205.789062 114.167969 202.714844 113.757812 199.636719 113.675781 C 196.554688 113.582031 193.484375 113.792969 190.4375 114.167969 C 187.664062 114.523438 184.902344 115.054688 182.21875 115.910156 C 181.785156 114.734375 181.257812 113.589844 180.664062 112.496094 C 174.523438 101.882812 164.894531 93.28125 153.476562 88.664062 C 152.054688 88.082031 150.609375 87.546875 149.140625 87.09375 C 147.683594 86.613281 146.175781 86.226562 144.660156 85.9375 C 141.625 85.363281 138.480469 85.160156 135.378906 85.628906 C 132.414062 86.066406 129.449219 87.199219 127.136719 89.230469 C 126.804688 88.578125 126.480469 87.921875 126.175781 87.257812 C 124.921875 84.523438 123.851562 81.6875 123.289062 78.753906 Z M 170.941406 130.046875 C 168.015625 129.320312 165.207031 128.113281 162.511719 126.726562 C 157.121094 123.941406 152.132812 120.394531 147.554688 116.414062 C 142.988281 112.417969 138.851562 107.929688 135.496094 102.871094 C 132.730469 98.816406 130.023438 94.703125 127.738281 90.386719 C 129.839844 88.378906 132.65625 87.222656 135.558594 86.757812 C 138.492188 86.277344 141.527344 86.425781 144.476562 86.945312 C 147.433594 87.464844 150.320312 88.417969 153.140625 89.5 C 158.773438 91.707031 164.03125 94.871094 168.617188 98.832031 C 170.902344 100.816406 173.042969 102.980469 174.957031 105.335938 C 175.460938 105.902344 175.910156 106.515625 176.371094 107.117188 C 176.828125 107.722656 177.304688 108.3125 177.71875 108.949219 L 179.007812 110.824219 C 179.414062 111.460938 179.808594 112.109375 180.171875 112.769531 C 180.757812 113.832031 181.277344 114.941406 181.703125 116.078125 C 181.609375 116.113281 181.511719 116.140625 181.417969 116.171875 C 179.953125 116.683594 178.511719 117.289062 177.148438 118.078125 C 175.785156 118.863281 174.484375 119.820312 173.445312 121.09375 C 172.40625 122.332031 171.691406 124.046875 171.90625 125.789062 C 172.089844 127.558594 173.261719 129.03125 174.558594 129.980469 C 174.808594 130.164062 175.066406 130.335938 175.324219 130.496094 C 173.859375 130.605469 172.382812 130.398438 170.941406 130.046875 Z M 175.367188 128.898438 C 174.226562 128.074219 173.34375 126.9375 173.195312 125.628906 C 173.023438 124.308594 173.53125 122.960938 174.421875 121.867188 C 175.300781 120.761719 176.484375 119.859375 177.753906 119.113281 C 179.023438 118.359375 180.394531 117.765625 181.800781 117.257812 C 181.894531 117.222656 181.988281 117.195312 182.078125 117.164062 C 182.5 118.507812 182.78125 119.898438 182.863281 121.304688 C 182.9375 122.792969 182.773438 124.308594 182.230469 125.691406 C 181.699219 127.074219 180.761719 128.285156 179.550781 129.121094 C 178.921875 129.542969 178.226562 129.863281 177.5 130.089844 C 176.738281 129.765625 176.015625 129.371094 175.367188 128.898438 Z M 211.058594 118.785156 C 211.3125 120.195312 211.328125 121.628906 210.96875 122.953125 C 210.632812 124.285156 209.878906 125.46875 208.898438 126.480469 C 206.894531 128.496094 204.136719 129.773438 201.335938 130.710938 C 198.511719 131.625 195.546875 132.242188 192.589844 132.367188 C 189.613281 132.503906 186.609375 132.242188 183.652344 131.722656 C 182.183594 131.457031 180.671875 131.140625 179.273438 130.742188 C 178.929688 130.636719 178.582031 130.523438 178.242188 130.394531 C 178.804688 130.171875 179.34375 129.894531 179.847656 129.550781 C 181.148438 128.652344 182.144531 127.339844 182.699219 125.871094 C 183.265625 124.40625 183.449219 122.824219 183.378906 121.277344 C 183.300781 119.8125 183.019531 118.378906 182.589844 116.988281 C 185.175781 116.136719 187.871094 115.589844 190.585938 115.210938 C 193.578125 114.808594 196.613281 114.570312 199.625 114.636719 C 203.253906 114.6875 206.859375 115.234375 210.359375 116.195312 C 210.660156 117.046875 210.898438 117.910156 211.058594 118.785156 Z M 211.058594 118.785156 " fill-opacity="1" fill-rule="nonzero"/></g></svg>